<?xml version="1.0" encoding="UTF-8"?>
<svg id="OBJECTS" xmlns="http://www.w3.org/2000/svg" xmlns:xlink="http://www.w3.org/1999/xlink" viewBox="0 0 212.59 168.43">
  <defs>
    <style>
      .cls-1 {
        fill: url(#linear-gradient);
      }

      .cls-1, .cls-2, .cls-3, .cls-4, .cls-5 {
        stroke-width: 0px;
      }

      .cls-2 {
        fill: #273c5d;
      }

      .cls-3, .cls-6 {
        fill: #fff;
      }

      .cls-4 {
        fill: url(#linear-gradient-2);
      }

      .cls-5 {
        fill: #e5ab4b;
      }

      .cls-6 {
        font-family: SofiaPro-Black, 'SofiaPro Black';
        font-size: 48.09px;
        font-weight: 800;
      }
    </style>
    <linearGradient id="linear-gradient" x1="8.14" y1="73.54" x2="212.59" y2="73.54" gradientUnits="userSpaceOnUse">
      <stop offset="0" stop-color="#ebb029"/>
      <stop offset=".7" stop-color="#de5d2c"/>
    </linearGradient>
    <linearGradient id="linear-gradient-2" x1="103.4" y1="77.88" x2="160.98" y2="77.88" gradientUnits="userSpaceOnUse">
      <stop offset="0" stop-color="#273c5d"/>
      <stop offset=".13" stop-color="#304c77"/>
      <stop offset=".31" stop-color="#395d93"/>
      <stop offset=".48" stop-color="#406aa7"/>
      <stop offset=".66" stop-color="#4471b3"/>
      <stop offset=".83" stop-color="#4674b7"/>
    </linearGradient>
  </defs>
  <g>
    <path class="cls-1" d="m212.59,29.41H63.59l-3.92-23.72c-.61-3.71-4.13-6.21-7.82-5.6-3.71.61-6.21,4.12-5.6,7.82l4.92,29.73H14.18c-3.33,0-6.04,2.71-6.04,6.04s2.7,6.04,6.04,6.04h66.89c3.33,0,6.03,2.7,6.04,6.04,0,3.34-2.7,6.04-6.04,6.04h-25.9l1.76,10.67h-23.08c-3.33,0-6.04,2.71-6.04,6.04s2.7,6.04,6.04,6.04h37.33c3.33,0,6.03,2.7,6.04,6.04,0,3.33-2.7,6.04-6.04,6.04h-10.25l7.4,44.77c.54,3.29,3.38,5.7,6.71,5.7h104.06c3.76,0,6.8-3.05,6.8-6.81s-3.05-6.8-6.8-6.8h-98.29l-1.18-7.13h116.81l16.16-96.93Z"/>
    <path class="cls-5" d="m15.17,72.46h-3.92c-3.33,0-6.04,2.71-6.04,6.04s2.7,6.04,6.04,6.04h3.92c3.33,0,6.04-2.7,6.04-6.04,0-3.33-2.7-6.04-6.04-6.04Z"/>
  </g>
  <path class="cls-3" d="m97.12,147.52c0,11.55-9.36,20.91-20.91,20.91s-20.91-9.36-20.91-20.91,9.36-20.91,20.91-20.91,20.91,9.36,20.91,20.91Z"/>
  <path class="cls-2" d="m87.96,147.52c0,6.49-5.26,11.75-11.75,11.75s-11.74-5.26-11.74-11.75,5.26-11.74,11.74-11.74,11.75,5.26,11.75,11.74Z"/>
  <path class="cls-3" d="m192.69,147.52c0,11.55-9.36,20.91-20.91,20.91s-20.91-9.36-20.91-20.91,9.36-20.91,20.91-20.91,20.91,9.36,20.91,20.91Z"/>
  <path class="cls-2" d="m183.53,147.52c0,6.49-5.26,11.75-11.75,11.75s-11.74-5.26-11.74-11.75,5.26-11.74,11.74-11.74,11.75,5.26,11.75,11.74Z"/>
  <g>
    <path class="cls-3" d="m165.4,69.75c4.48,18.34-6.74,36.85-25.09,41.33-18.34,4.48-36.84-6.75-41.32-25.08-4.48-18.34,6.75-36.85,25.09-41.33,18.34-4.49,36.84,6.75,41.32,25.08Z"/>
    <path class="cls-4" d="m160.15,71.04c3.78,15.44-5.68,31.01-21.12,34.79-15.44,3.78-31.02-5.68-34.79-21.12-3.78-15.43,5.68-31.01,21.12-34.79,15.44-3.78,31.02,5.68,34.79,21.12Z"/>
    <text class="cls-6" transform="translate(122.92 97.73) rotate(-13.74)"><tspan x="0" y="0">$</tspan></text>
  </g>
</svg>